#!OML:ASF H:\Pregnant\Project 1\Capture day 1\Session 1\femalepreg.ASF
:FULLY-SPECIFIED
:DEGREES
353
root 6.81499 15.5476 15.2363 27.0273 -15.0818 -4.8386
lowerback -16.6406 -1.59533 -0.270191
upperback -5.86677 -2.20001 1.79455
thorax 3.15086 -1.10461 1.62196
lowerneck -17.4357 -11.0109 -7.4161
upperneck 14.7495 -15.3366 10.7309
head 8.90849 -6.65615 2.69942
rclavicle -7.20594e-015 -4.77083e-015
rhumerus -34.2785 -13.7652 -65.0089
rradius 22.858
rwrist -5.72512
rhand -26.1382 -12.4651
rfingers 7.12502
rthumb 0.412228 -42.4445
lclavicle -7.20594e-015 -4.77083e-015
lhumerus -35.9433 1.70358 77.3779
lradius 28.818
lwrist 39.5007
lhand -31.76 4.26013
lfingers 7.12502
lthumb -5.01704 34.1807
rfemur -47.1352 13.1089 26.3848
rtibia 36.5597
rfoot -8.40595 -14.8931
rtoes -0.701475
lfemur -19.8686 -7.95858 -21.0596
ltibia 20.3775
lfoot -16.4211 26.7708
ltoes -12.2253
354
root 6.79801 15.5485 15.2983 26.8759 -15.1133 -4.71859
lowerback -16.8831 -1.60509 -0.186897
upperback -5.86723 -2.23281 1.89671
thorax 3.2805 -1.12114 1.67032
lowerneck -17.3628 -10.8965 -7.32345
upperneck 14.9574 -15.162 10.4202
head 8.91354 -6.59556 2.61311
rclavicle -1.19271e-015 -1.03368e-014
rhumerus -34.8312 -14.3999 -63.8076
rradius 22.6707
rwrist -5.20554
rhand -26.1582 -12.5901
rfingers 7.12502
rthumb 0.392935 -42.5695
lclavicle -1.19271e-015 -1.03368e-014
lhumerus -36.6982 1.74129 77.6272
lradius 29.4488
lwrist 40.528
lhand -30.8624 4.01873
lfingers 7.12502
lthumb -4.15029 33.9581
rfemur -46.7957 13.2009 26.299
rtibia 36.6731
rfoot -8.62645 -15.1384
rtoes -0.749697
lfemur -19.5274 -7.76567 -21.2318
ltibia 20.4688
lfoot -16.185 26.4057
ltoes -13.0444
355
root 6.78143 15.5488 15.3595 26.7289 -15.0667 -4.6306
lowerback -17.1153 -1.62274 -0.0345443
upperback -5.86624 -2.28811 2.00285
thorax 3.40448 -1.14906 1.67953
lowerneck -17.3208 -10.7863 -7.23561
upperneck 15.2159 -14.9969 10.1143
head 8.94392 -6.53657 2.52519
rclavicle -3.81418e-014 -3.97569e-016
rhumerus -35.3927 -14.9304 -62.6827
rradius 22.5576
rwrist -4.77739
rhand -26.1571 -12.715
rfingers 7.12502
rthumb 0.394057 -42.6944
lclavicle -3.81418e-014 -3.97569e-016
lhumerus -37.4079 1.74668 77.8674
lradius 30.0242
lwrist 41.4941
lhand -29.8086 3.74322
lfingers 7.12502
lthumb -3.13257 33.7
rfemur -46.4374 13.2515 26.266
rtibia 36.7606
rfoot -8.84669 -15.3842
rtoes -0.770801
lfemur -19.301 -7.58395 -21.3402
ltibia 20.738
lfoot -15.9494 26.0008
ltoes -13.9911
356
root 6.76512 15.5483 15.4197 26.5799 -14.9561 -4.5899
lowerback -17.3211 -1.64268 0.188315
upperback -5.86124 -2.35946 2.12022
thorax 3.51686 -1.18498 1.65791
lowerneck -17.3199 -10.6795 -7.16505
upperneck 15.5229 -14.8373 9.82081
head 9.00201 -6.47712 2.44027
rclavicle -3.03644e-014 3.08116e-014
rhumerus -35.9517 -15.357 -61.6338
rradius 22.5078
rwrist -4.45053
rhand -26.1315 -12.8175
rfingers 7.12502
rthumb 0.418716 -42.7968
lclavicle -3.03644e-014 3.08116e-014
lhumerus -38.0649 1.71209 78.1107
lradius 30.5321
lwrist 42.3962
lhand -28.6236 3.49267
lfingers 7.12502
lthumb -1.98821 33.4632
rfemur -46.0405 13.27 26.3019
rtibia 36.8072
rfoot -9.0606 -15.6189
rtoes -0.775612
lfemur -19.1881 -7.4123 -21.3754
ltibia 21.2124
lfoot -15.7472 25.5741
ltoes -14.9944
357
root 6.74876 15.5469 15.4791 26.4193 -14.7959 -4.60518
lowerback -17.4871 -1.66329 0.476133
upperback -5.85439 -2.44424 2.25618
thorax 3.60843 -1.22749 1.61721
lowerneck -17.3458 -10.5723 -7.11908
upperneck 15.8727 -14.6756 9.53739
head 9.08304 -6.41529 2.36061
rclavicle -1.3741e-014 -2.64384e-014
rhumerus -36.5021 -15.6802 -60.6557
rradius 22.5028
rwrist -4.21934
rhand -26.0879 -12.8906
rfingers 7.12502
rthumb 0.46085 -42.8698
lclavicle -1.3741e-014 -2.64384e-014
lhumerus -38.679 1.64232 78.362
lradius 30.9678
lwrist 43.2197
lhand -27.3449 3.26496
lfingers 7.12502
lthumb -0.753234 33.2434
rfemur -45.5845 13.2685 26.4152
rtibia 36.8066
rfoot -9.26932 -15.8404
rtoes -0.781096
lfemur -19.1662 -7.24603 -21.3348
ltibia 21.8871
lfoot -15.5907 25.1411
ltoes -16.0658
358
root 6.73218 15.5445 15.5375 26.2441 -14.605 -4.67532
lowerback -17.6103 -1.68053 0.819412
upperback -5.84519 -2.53534 2.40807
thorax 3.67793 -1.27304 1.5616
lowerneck -17.3815 -10.4649 -7.08291
upperneck 16.2455 -14.5119 9.25487
head 9.17534 -6.35266 2.28199
rclavicle -1.48716e-014 -1.85864e-014
rhumerus -37.044 -15.9108 -59.7475
rradius 22.5346
rwrist -4.07726
rhand -26.0281 -12.9091
rfingers 7.12502
rthumb 0.518634 -42.8882
lclavicle -1.48716e-014 -1.85864e-014
lhumerus -39.2515 1.5337 78.623
lradius 31.3333
lwrist 43.9489
lhand -26.0283 3.07476
lfingers 7.12502
lthumb 0.518391 33.0539
rfemur -45.0702 13.2552 26.6034
rtibia 36.7598
rfoot -9.46354 -16.0445
rtoes -0.810374
lfemur -19.2171 -7.07616 -21.2255
ltibia 22.7398
lfoot -15.4846 24.7045
ltoes -17.1584
359
root 6.7151 15.5407 15.595 26.0479 -14.4032 -4.79221
lowerback -17.6933 -1.69156 1.2027
upperback -5.8294 -2.626 2.57147
thorax 3.73135 -1.31825 1.49654
lowerneck -17.4133 -10.357 -7.06339
upperneck 16.6219 -14.345 8.98365
head 9.27122 -6.28924 2.20993
rclavicle -1.87914e-014 -1.49089e-014
rhumerus -37.5727 -16.0719 -58.903
rradius 22.59
rwrist -4.00906
rhand -25.9502 -12.8575
rfingers 7.12502
rthumb 0.593862 -42.8364
lclavicle -1.87914e-014 -1.49089e-014
lhumerus -39.7748 1.37651 78.8971
lradius 31.625
lwrist 44.5711
lhand -24.7127 2.87864
lfingers 7.12502
lthumb 1.78908 32.8509
rfemur -44.4972 13.2381 26.8565
rtibia 36.6761
rfoot -9.65244 -16.2315
rtoes -0.842378
lfemur -19.3113 -6.88728 -21.0652
ltibia 23.7374
lfoot -15.4368 24.2656
ltoes -18.2021
360
root 6.69855 15.5358 15.6511 25.8486 -14.2117 -4.94611
lowerback -17.7489 -1.69214 1.62424
upperback -5.81178 -2.70996 2.74
thorax 3.76982 -1.3601 1.41747
lowerneck -17.4313 -10.2448 -7.05756
upperneck 16.9848 -14.1696 8.72618
head 9.36248 -6.22298 2.14636
rclavicle -5.37837e-014 7.72775e-015
rhumerus -38.0809 -16.1869 -58.1172
rradius 22.6614
rwrist -3.99503
rhand -25.8647 -12.7241
rfingers 7.12502
rthumb 0.676407 -42.7028
lclavicle -5.37837e-014 7.72775e-015
lhumerus -40.2528 1.18959 79.1773
lradius 31.8522
lwrist 45.0524
lhand -23.4381 2.68853
lfingers 7.12502
lthumb 3.02006 32.6469
rfemur -43.9015 13.2042 27.1598
rtibia 36.5691
rfoot -9.83425 -16.3758
rtoes -0.900737
lfemur -19.4604 -6.69082 -20.8671
ltibia 24.8477
lfoot -15.425 23.8396
ltoes -19.187
361
root 6.68268 15.5301 15.7059 25.653 -14.0439 -5.12256
lowerback -17.791 -1.67622 2.07676
upperback -5.79195 -2.77739 2.89839
thorax 3.80045 -1.39377 1.3141
lowerneck -17.4307 -10.1311 -7.0334
upperneck 17.3242 -13.9936 8.46587
head 9.44153 -6.15764 2.08002
rclavicle -3.01982e-014 -3.23398e-014
rhumerus -38.58 -16.3019 -57.3797
rradius 22.7472
rwrist -4.00761
rhand -25.7658 -12.5218
rfingers 7.12502
rthumb 0.771914 -42.5001
lclavicle -3.01982e-014 -3.23398e-014
lhumerus -40.6752 0.961564 79.4533
lradius 32.0118
lwrist 45.3685
lhand -22.2174 2.51999
lfingers 7.12502
lthumb 4.19881 32.4584
rfemur -43.3036 13.1518 27.4942
rtibia 36.455
rfoot -10.0182 -16.472
rtoes -0.978371
lfemur -19.6602 -6.48429 -20.649
ltibia 26.0426
lfoot -15.4443 23.4158
ltoes -20.0311
362
root 6.66745 15.5235 15.7593 25.4669 -13.9151 -5.3086
lowerback -17.8313 -1.6439 2.54343
upperback -5.77033 -2.82571 3.04345
thorax 3.82962 -1.41789 1.19286
lowerneck -17.4046 -10.0126 -6.99952
upperneck 17.6324 -13.812 8.21157
head 9.50534 -6.09085 2.01631
rclavicle 3.72224e-014 -7.45443e-015
rhumerus -39.0667 -16.4303 -56.687
rradius 22.8491
rwrist -4.03336
rhand -25.6499 -12.2899
rfingers 7.12502
rthumb 0.883913 -42.2678
lclavicle 3.72224e-014 -7.45443e-015
lhumerus -41.0432 0.707786 79.7202
lradius 32.1071
lwrist 45.5025
lhand -21.0767 2.39181
lfingers 7.12502
lthumb 5.30029 32.3055
rfemur -42.7245 13.0899 27.8383
rtibia 36.3483
rfoot -10.2068 -16.522
rtoes -1.06577
lfemur -19.9091 -6.25181 -20.4323
ltibia 27.3055
lfoot -15.4503 22.9958
ltoes -20.8175
363
root 6.65273 15.5162 15.8113 25.294 -13.8336 -5.49294
lowerback -17.8725 -1.59812 3.00356
upperback -5.75059 -2.8554 3.17812
thorax 3.85636 -1.4327 1.06846
lowerneck -17.3536 -9.88885 -6.94492
upperneck 17.9126 -13.6223 7.94189
head 9.55231 -6.02271 1.9467
rclavicle 4.8783e-014 -1.92821e-014
rhumerus -39.5412 -16.5703 -56.0301
rradius 22.969
rwrist -4.07214
rhand -25.5176 -12.0562
rfingers 7.12502
rthumb 1.01165 -42.0335
lclavicle 4.8783e-014 -1.92821e-014
lhumerus -41.3664 0.458915 79.9738
lradius 32.1436
lwrist 45.4369
lhand -20.0393 2.29221
lfingers 7.12502
lthumb 6.30188 32.1785
rfemur -42.1793 13.0283 28.1744
rtibia 36.2629
rfoot -10.3974 -16.5348
rtoes -1.19169
lfemur -20.2059 -5.98601 -20.2312
ltibia 28.6229
lfoot -15.4229 22.5775
ltoes -21.5864
